<svg width="21" height="25" viewBox="0 0 21 25" fill="none" xmlns="http://www.w3.org/2000/svg">
<path d="M19.6465 8.6825C19.5075 8.7905 17.0495 10.1755 17.0495 13.255C17.0495 16.817 20.177 18.077 20.2705 18.108C20.2565 18.185 19.774 19.834 18.6215 21.514C17.5945 22.9925 16.5215 24.469 14.8895 24.469C13.257 24.469 12.837 23.5205 10.953 23.5205C9.11697 23.5205 8.46397 24.5 6.97097 24.5C5.47797 24.5 4.43597 23.132 3.23847 21.4515C1.85097 19.4785 0.730469 16.4135 0.730469 13.505C0.730469 8.839 3.76397 6.3645 6.75047 6.3645C8.33647 6.3645 9.65897 7.406 10.6555 7.406C11.6035 7.406 13.082 6.302 14.887 6.302C15.571 6.302 18.029 6.3645 19.647 8.683L19.6465 8.6825ZM14.0305 4.326C14.777 3.4405 15.3055 2.211 15.3055 0.9825C15.3055 0.8125 15.2905 0.639 15.2595 0.5C14.0445 0.5455 12.6 1.309 11.7285 2.3195C11.0445 3.097 10.406 4.326 10.406 5.5715C10.406 5.759 10.4375 5.9465 10.452 6.0065C10.5285 6.0205 10.6535 6.0375 10.778 6.0375C11.868 6.0375 13.238 5.3075 14.0305 4.326Z" fill="#B3B3B3"/>
</svg>
